<?xml version="1.0" encoding="UTF-8" standalone="no"?>
<svg
   width="1541.2516"
   height="124.23235"
   fill="none"
   version="1.1"
   id="svg4"
   sodipodi:docname="truth-logo.svg"
   inkscape:version="1.4.2 (ebf0e940, 2025-05-08)"
   xml:space="preserve"
   xmlns:inkscape="http://www.inkscape.org/namespaces/inkscape"
   xmlns:sodipodi="http://sodipodi.sourceforge.net/DTD/sodipodi-0.dtd"
   xmlns="http://www.w3.org/2000/svg"
   xmlns:svg="http://www.w3.org/2000/svg"><defs
     id="defs4" /><sodipodi:namedview
     id="namedview4"
     pagecolor="#ffffff"
     bordercolor="#000000"
     borderopacity="0.25"
     inkscape:showpageshadow="2"
     inkscape:pageopacity="0.0"
     inkscape:pagecheckerboard="0"
     inkscape:deskcolor="#d1d1d1"
     inkscape:zoom="1.23"
     inkscape:cx="735.77236"
     inkscape:cy="-17.479675"
     inkscape:window-width="2856"
     inkscape:window-height="1186"
     inkscape:window-x="0"
     inkscape:window-y="25"
     inkscape:window-maximized="0"
     inkscape:current-layer="svg4"
     showguides="true" /><path
     style="font-weight:900;font-size:167.655px;font-family:Conneqt;-inkscape-font-specification:'Conneqt, Heavy';text-align:center;letter-spacing:-11.75px;text-anchor:middle;fill:#08051b;stroke-width:13.9713"
     d="m 787.55942,47.27871 q 8.04744,2.514825 16.59784,5.36496 8.55041,2.850135 15.59192,7.37682 7.04151,4.526685 11.56819,11.232885 4.52669,6.538545 4.52669,16.43019 0,17.603775 -13.58006,26.824795 -13.58005,9.05337 -39.06361,9.05337 -13.58006,0 -27.99839,-3.01779 -14.25067,-3.01779 -26.15418,-8.38275 l 10.39461,-29.171965 q 3.68841,1.67655 9.38868,3.68841 5.86793,1.844205 12.07116,3.520755 6.37089,1.508895 12.23882,2.68248 6.03558,1.00593 10.0593,1.00593 8.5504,0 11.9035,-2.01186 3.3531,-2.179515 3.3531,-5.532615 0,-4.191375 -5.53261,-6.203235 -5.53262,-2.01186 -14.9213,-4.35903 -7.54447,-1.844205 -15.92722,-4.526685 -8.2151,-2.68248 -15.25661,-7.04151 -6.87385,-4.35903 -11.40054,-10.897575 -4.35903,-6.538545 -4.35903,-16.262535 0,-16.43019 13.07709,-25.986525 13.07709,-9.556335 39.39893,-9.556335 11.9035,0 24.81294,2.34717 12.90943,2.3471699 23.4717,7.04151 L 820.75511,39.56658 q -4.52669,-1.844205 -9.72399,-3.3531 -5.02965,-1.508895 -10.0593,-2.514825 -4.862,-1.00593 -9.38868,-1.508895 -4.52669,-0.67062 -8.04744,-0.67062 -8.88572,0 -12.40647,1.508895 -3.3531,1.508895 -3.3531,4.526685 0,1.508895 1.50889,2.850135 1.67655,1.173585 4.35903,2.34717 2.85014,1.173585 6.37089,2.34717 3.52076,1.00593 7.54448,2.179515 z m 114.32672,43.5903 q 6.37089,0 11.56819,-2.179515 5.36496,-2.179515 9.22103,-5.70027 l 22.13046,22.968735 q -8.55041,8.5504 -19.95095,13.4124 -11.40054,4.86199 -24.98059,4.86199 -13.4124,0 -24.9806,-4.86199 -11.56819,-5.02965 -20.1186,-13.4124 -8.38275,-8.382747 -13.24474,-19.78329 -4.69434,-11.40054 -4.69434,-24.14232 0,-12.909435 4.69434,-24.14232 4.86199,-11.232885 13.24474,-19.615635 8.55041,-8.5504053 20.1186,-13.4124 Q 886.46188,0 899.87428,0 q 13.58005,0 24.98059,4.861995 11.40054,4.6943397 19.95095,13.244745 l -22.13046,22.968735 q -3.85607,-3.520755 -9.22103,-5.532615 -5.1973,-2.179515 -11.56819,-2.179515 -6.87386,0 -12.40647,2.34717 -5.53262,2.34717 -9.55634,6.37089 -3.85606,4.02372 -6.03558,9.221025 -2.01186,5.197305 -2.01186,10.72992 0,5.532615 2.01186,10.72992 2.17952,5.197305 6.03558,9.221025 4.02372,4.02372 9.55634,6.538545 5.53261,2.34717 12.40647,2.34717 z m 167.64096,30.1779 h -39.7343 l -23.304,-31.85445 h -18.27441 v 31.85445 h -35.0399 V 3.856065 h 64.54721 q 10.0593,0 18.2744,3.3530997 8.3827,3.3531003 14.083,9.2210253 5.8679,5.70027 9.0534,13.4124 3.1854,7.71213 3.1854,16.597845 0,11.40054 -6.2032,20.286255 -6.0356,8.71806 -15.7596,14.250675 z m -57.1704,-62.535315 q 7.2092,0 10.7299,-3.520755 3.5208,-3.68841 3.5208,-8.71806 0,-5.02965 -3.5208,-8.71806 -3.5207,-3.68841 -10.7299,-3.68841 h -24.14231 v 24.645285 z m 181.8915,62.535315 H 1158.37 l -7.5444,-21.124527 h -45.2669 l -7.7121,21.124527 h -35.8782 L 1107.7382,3.856065 h 40.9078 z m -53.3143,-48.61995 -12.7418,-35.20755 -12.7417,35.20755 z m 116.003,-68.570895 q 11.5682,0 20.4539,3.5207547 8.8857,3.3531003 14.7536,9.3886803 6.0356,6.03558 9.0534,14.250675 3.1855,8.04744 3.1855,17.268465 0,9.221025 -3.1855,17.43612 -3.0178,8.04744 -9.0534,14.08302 -5.8679,6.03558 -14.7536,9.556335 -8.8857,3.520755 -20.4539,3.520755 h -24.6453 v 28.16604 h -35.0399 V 3.856065 Z m -2.1795,58.511595 q 6.7062,0 10.7299,-4.02372 4.0237,-4.191375 4.0237,-10.0593 0,-5.867925 -4.0237,-9.891645 -4.0237,-4.02372 -10.7299,-4.02372 h -22.4658 V 62.36766 Z m 92.1961,-29.17197 v 14.585985 h 51.6377 V 77.1213 h -51.6377 v 14.585985 h 64.0442 v 29.339625 h -99.0841 V 3.856065 h 99.0841 V 33.19569 Z m 194.2981,87.85122 h -39.7342 l -23.3041,-31.85445 h -18.2744 v 31.85445 H 1424.899 V 3.856065 h 64.5472 q 10.0593,0 18.2744,3.3530997 8.3827,3.3531003 14.083,9.2210253 5.8679,5.70027 9.0534,13.4124 3.1854,7.71213 3.1854,16.597845 0,11.40054 -6.2032,20.286255 -6.0356,8.71806 -15.7596,14.250675 z m -57.1704,-62.535315 q 7.2092,0 10.73,-3.520755 3.5207,-3.68841 3.5207,-8.71806 0,-5.02965 -3.5207,-8.71806 -3.5208,-3.68841 -10.73,-3.68841 h -24.1423 v 24.645285 z"
     id="text1"
     aria-label="SCRAPER" /><g
     id="g1"
     transform="translate(-9.7227894e-6,-127.72986)"><path
       d="m 130.33479,161.00906 v -33.2789 H 52.863228 V 250.5826 h 39.542795 v -89.57354 z"
       fill="#5448ee"
       id="path1"
       style="stroke-width:1.4673" /><path
       fill-rule="evenodd"
       clip-rule="evenodd"
       d="m 199.58332,215.43011 24.12678,35.15249 h 44.18327 l -29.60713,-39.7174 c 18.73592,-12.56873 23.03657,-26.544 23.03657,-38.59522 0,-8.40879 -2.01753,-15.96346 -6.0526,-22.66402 -4.03507,-6.83218 -10.02018,-12.15325 -17.95532,-15.96343 -7.93662,-3.94158 -17.61932,-5.91237 -29.0525,-5.91237 h -62.3402 V 250.5826 h 39.54279 v -35.15249 z m 5.45102,-26.40843 h -19.56936 v -28.97062 h 19.56936 c 5.24558,0 9.21316,1.31382 11.90271,3.9416 2.82455,2.49632 4.23756,5.97807 4.23756,10.44511 0,4.72998 -1.34551,8.34306 -4.03507,10.83937 -2.68955,2.49631 -6.72462,3.74454 -12.1052,3.74454 z"
       fill="#5448ee"
       id="path2"
       style="stroke-width:1.4673" /><path
       d="m 312.96583,127.73016 v 64.51708 c 0,7.48909 1.74902,13.26995 5.24559,17.34302 3.63156,4.07293 9.07817,6.10939 16.34129,6.10939 7.26313,0 12.7112,-2.03646 16.3413,-6.10939 3.76655,-4.20439 5.64909,-9.9854 5.64909,-17.34302 v -64.51708 h 39.54368 v 64.51708 c 0,12.74451 -2.75705,23.64947 -8.27263,32.71502 -5.5141,8.93423 -13.04574,15.70068 -22.59491,20.29919 -9.41565,4.46704 -19.90683,6.70071 -31.47354,6.70071 -11.56671,0 -21.9229,-2.23367 -31.06857,-6.70071 -9.01214,-4.59851 -16.14027,-11.36496 -21.38586,-20.29919 -5.1106,-8.93423 -7.66663,-19.83918 -7.66663,-32.71502 v -64.51708 z"
       fill="#5448ee"
       id="path3"
       style="stroke-width:1.4673" /><path
       d="m 524.98596,161.00906 v -33.2789 H 409.98943 v 33.2789 h 37.52614 v 89.57354 h 39.54221 v -89.57354 z"
       fill="#5448ee"
       id="path4"
       style="stroke-width:1.4673" /><path
       d="M 664.44968,127.73016 V 250.5826 h -39.54221 v -42.9029 h -48.21834 v 42.9029 H 537.14545 V 127.73016 h 39.54368 v 46.47358 h 48.21834 v -46.47358 z"
       fill="#5448ee"
       id="path5-3"
       style="stroke-width:1.4673" /><path
       d="M 9.7227894e-6,127.73016 H 37.960618 v 33.27083 H 9.7227894e-6 Z"
       fill="#5448ee"
       id="path6"
       style="stroke-width:1.4673" /><path
       d="m 716.04574,217.70868 h -38.02062 v 32.95096 h 38.02062 z"
       fill="#2feecc"
       id="path7-7"
       style="stroke-width:1.4673" /></g></svg>
